<svg xmlns="http://www.w3.org/2000/svg" width="1600" height="900" viewBox="0 0 1600 900">
  <defs>
    <linearGradient id="node" x1="0" y1="0" x2="0" y2="1">
      <stop offset="0%" stop-color="#F2C94C"/>
      <stop offset="100%" stop-color="#E4B824"/>
    </linearGradient>
    <linearGradient id="core" x1="0" y1="0" x2="0" y2="1">
      <stop offset="0%" stop-color="#0E5AA7"/>
      <stop offset="100%" stop-color="#0B4A88"/>
    </linearGradient>
    <style>
      .title { font: 900 180px 'Inter', 'Segoe UI', system-ui, -apple-system, sans-serif; fill: #0B4A88; }
      .subtitle { font: 700 72px 'Inter', 'Segoe UI', system-ui, -apple-system, sans-serif; fill: #E4B824; letter-spacing: 12px; }
    </style>
  </defs>
  <rect x="0" y="0" width="1600" height="900" fill="#ffffff"/>

  <!-- Hex-Netz links -->
  <g transform="translate(140,160)">
    <!-- Verbindungen -->
    <g stroke="#0E5AA7" stroke-width="28" stroke-linecap="round">
      <line x1="220" y1="80"  x2="420" y2="210"/>
      <line x1="220" y1="80"  x2="220" y2="350"/>
      <line x1="220" y1="80"  x2="20"  y2="210"/>
      <line x1="20"  y1="210" x2="20"  y2="480"/>
      <line x1="20"  y1="480" x2="220" y2="610"/>
      <line x1="220" y1="610" x2="420" y2="480"/>
      <line x1="420" y1="210" x2="420" y2="480"/>
      <line x1="220" y1="350" x2="420" y2="480"/>
      <line x1="220" y1="350" x2="20"  y2="210"/>
    </g>
    <!-- Knoten -->
    <g>
      <circle cx="220" cy="80"  r="58" fill="url(#node)"/>
      <circle cx="420" cy="210" r="58" fill="url(#node)"/>
      <circle cx="420" cy="480" r="58" fill="url(#node)"/>
      <circle cx="220" cy="610" r="58" fill="url(#node)"/>
      <circle cx="20"  cy="480" r="58" fill="url(#node)"/>
      <circle cx="20"  cy="210" r="58" fill="url(#node)"/>
    </g>
    <!-- Kern -->
    <g>
      <circle cx="220" cy="350" r="135" fill="url(#core)"/>
      <circle cx="220" cy="350" r="26" fill="#083761"/>
    </g>
  </g>

  <!-- Typografie rechts mit großzügigem Rand -->
  <g transform="translate(600,330)">
    <text class="title">CellRepair</text>
    <text class="subtitle" x="8" y="170">AI NETWORK</text>
  </g>
</svg>
