<svg xmlns="http://www.w3.org/2000/svg" width="1024" height="1024" viewBox="0 0 1024 1024">
  <defs>
    <linearGradient id="bg" x1="0" y1="0" x2="1" y2="1">
      <stop offset="0%" stop-color="#0b0f14"/>
      <stop offset="100%" stop-color="#0f1620"/>
    </linearGradient>
    <linearGradient id="node" x1="0" y1="0" x2="0" y2="1">
      <stop offset="0%" stop-color="#F2C94C"/>
      <stop offset="100%" stop-color="#E4B824"/>
    </linearGradient>
    <linearGradient id="core" x1="0" y1="0" x2="0" y2="1">
      <stop offset="0%" stop-color="#0E5AA7"/>
      <stop offset="100%" stop-color="#0B4A88"/>
    </linearGradient>
    <style>
      .title { font: 900 160px 'Inter', 'Segoe UI', system-ui, -apple-system, sans-serif; fill: #0B4A88; }
      .subtitle { font: 700 72px 'Inter', 'Segoe UI', system-ui, -apple-system, sans-serif; fill: #E4B824; letter-spacing: 14px; }
    </style>
  </defs>
  <rect width="1024" height="1024" fill="url(#bg)"/>

  <!-- Hex-Netz links -->
  <g transform="translate(160,160) scale(1.0)">
    <!-- Verbindungen -->
    <g stroke="#0E5AA7" stroke-width="26" stroke-linecap="round">
      <line x1="192" y1="96"  x2="384" y2="208"/>
      <line x1="192" y1="96"  x2="192" y2="320"/>
      <line x1="192" y1="96"  x2="0"   y2="208"/>
      <line x1="0"   y1="208" x2="0"   y2="432"/>
      <line x1="0"   y1="432" x2="192" y2="544"/>
      <line x1="192" y1="544" x2="384" y2="432"/>
      <line x1="384" y1="208" x2="384" y2="432"/>
      <line x1="192" y1="320" x2="384" y2="432"/>
      <line x1="192" y1="320" x2="0"   y2="208"/>
    </g>
    <!-- Knoten -->
    <g>
      <circle cx="192" cy="96"  r="52" fill="url(#node)"/>
      <circle cx="384" cy="208" r="52" fill="url(#node)"/>
      <circle cx="384" cy="432" r="52" fill="url(#node)"/>
      <circle cx="192" cy="544" r="52" fill="url(#node)"/>
      <circle cx="0"   cy="432" r="52" fill="url(#node)"/>
      <circle cx="0"   cy="208" r="52" fill="url(#node)"/>
    </g>
    <!-- Kern -->
    <g>
      <circle cx="192" cy="320" r="120" fill="url(#core)"/>
      <circle cx="192" cy="320" r="22" fill="#083761"/>
    </g>
  </g>

  <!-- Typo rechts -->
  <g transform="translate(460,370)">
    <text class="title">CellRepair</text>
    <text class="subtitle" x="8" y="150">AI NETWORK</text>
  </g>
</svg>
